<svg xmlns="http://www.w3.org/2000/svg" width="30" height="30" viewBox="0 0 30 30">
  <g id="LinkedIn-Hero" transform="translate(-1 -1)" opacity="0.75">
    <path id="Path_21" data-name="Path 21" d="M27.875,1H4.125A3.129,3.129,0,0,0,1,4.125v23.75A3.129,3.129,0,0,0,4.125,31h23.75A3.129,3.129,0,0,0,31,27.875V4.125A3.129,3.129,0,0,0,27.875,1ZM29.75,27.875a1.877,1.877,0,0,1-1.875,1.875H4.125A1.877,1.877,0,0,1,2.25,27.875V4.125A1.877,1.877,0,0,1,4.125,2.25h23.75A1.877,1.877,0,0,1,29.75,4.125Z" fill="#fff"/>
    <path id="Path_22" data-name="Path 22" d="M8,33.379h5V19H8ZM9.25,20.25h2.5V32.129H9.25Z" transform="translate(-2.624 -6.756)" fill="#fff"/>
    <path id="Path_23" data-name="Path 23" d="M10.126,7a3.126,3.126,0,1,0,3.126,3.126A3.13,3.13,0,0,0,10.126,7Zm0,5A1.876,1.876,0,1,1,12,10.126,1.878,1.878,0,0,1,10.126,12Z" transform="translate(-2.249 -2.249)" fill="#fff"/>
    <path id="Path_24" data-name="Path 24" d="M26.5,19a5.848,5.848,0,0,0-2.5.573V19H19V33.379h5V26.5a2.5,2.5,0,1,1,5,0v6.877h5V26.5A7.511,7.511,0,0,0,26.5,19Zm6.252,13.129h-2.5V26.5a3.751,3.751,0,1,0-7.5,0v5.627h-2.5V20.25h2.5v1.576l.976-.661A4.918,4.918,0,0,1,26.5,20.25,6.259,6.259,0,0,1,32.754,26.5Z" transform="translate(-6.756 -6.756)" fill="#fff"/>
  </g>
</svg>
