<svg xmlns="http://www.w3.org/2000/svg" width="150" height="75" viewBox="0 0 150 75">
  <path id="Collab-img" d="M25,49.75a12.5,12.5,0,1,0-12.5-12.5A12.537,12.537,0,0,0,25,49.75Zm7.063,6.875A43.641,43.641,0,0,0,25,56,43.44,43.44,0,0,0,7.625,59.625,12.568,12.568,0,0,0,0,71.188V81H28.125V70.937A28.117,28.117,0,0,1,32.063,56.625ZM125,49.75a12.5,12.5,0,1,0-12.5-12.5A12.537,12.537,0,0,0,125,49.75Zm25,21.438a12.568,12.568,0,0,0-7.625-11.563,42.489,42.489,0,0,0-24.437-3,28.117,28.117,0,0,1,3.937,14.312V81H150ZM101.5,53.812A65.269,65.269,0,0,0,75,48.187a66.318,66.318,0,0,0-26.5,5.625,18.675,18.675,0,0,0-11,17.125V81h75V70.937A18.675,18.675,0,0,0,101.5,53.812ZM50.437,68.5c.563-1.437.812-2.437,5.688-4.312a52.645,52.645,0,0,1,37.75,0c4.813,1.875,5.062,2.875,5.687,4.312ZM75,18.5a6.25,6.25,0,1,1-6.25,6.25A6.268,6.268,0,0,1,75,18.5M75,6A18.75,18.75,0,1,0,93.75,24.75,18.725,18.725,0,0,0,75,6Z" transform="translate(0 -6)" fill="#e0474c"/>
</svg>
