<svg xmlns="http://www.w3.org/2000/svg" xmlns:xlink="http://www.w3.org/1999/xlink" width="292.877" height="84" viewBox="0 0 292.877 84">
  <defs>
    <filter id="Express-logo" x="0" y="0" width="292.877" height="84" filterUnits="userSpaceOnUse">
      <feOffset dy="3" input="SourceAlpha"/>
      <feGaussianBlur stdDeviation="4" result="blur"/>
      <feFlood flood-opacity="0.302"/>
      <feComposite operator="in" in2="blur"/>
      <feComposite in="SourceGraphic"/>
    </filter>
  </defs>
  <g transform="matrix(1, 0, 0, 1, 0, 0)" filter="url(#Express-logo)">
    <path id="Express-logo-2" data-name="Express-logo" d="M90.724,78.248V19.422h3.191v9.253a12.1,12.1,0,0,0,1.041-1.3,15.814,15.814,0,0,1,14.423-8.95c7.275-.217,13.187,2.476,16.661,8.95a28.769,28.769,0,0,1,.694,26.372C123.5,61,115.5,64.6,106.944,63.279A16.005,16.005,0,0,1,94.17,54.85v23.4Zm3.191-38.017.715,6.908C95.891,55,100.539,59.647,107.837,60.52a15.01,15.01,0,0,0,16.488-9.537,25.588,25.588,0,0,0-.562-21.029,14.7,14.7,0,0,0-15.49-8.559A14.32,14.32,0,0,0,95.48,31.973a73.057,73.057,0,0,0-1.565,8.255ZM194.74,48.226a17.2,17.2,0,0,1-16.814,15.206c-13.381.674-19.661-8.212-20.659-18.466a29.586,29.586,0,0,1,2.606-16.294,18.175,18.175,0,0,1,18.92-10.144,17.384,17.384,0,0,1,15.423,13.231,89.266,89.266,0,0,1,1.5,9.777H160.573c-.651,9.3,4.345,16.771,11.426,18.573,8.819,2.17,16.357-1.652,19.094-10.037.608-2.152,1.715-2.456,3.671-1.846Zm-34.193-9.667h31.434c-.2-9.9-6.364-17.1-14.729-17.185-9.445-.153-16.294,6.757-16.7,17.185Zm40.69,9.884h3.081a12.355,12.355,0,0,0,7.255,10.645,18.966,18.966,0,0,0,16.467-.434,7.4,7.4,0,0,0,4.345-7.278,6.714,6.714,0,0,0-4.518-6.714c-3.39-1.261-6.994-1.955-10.448-3.063A76.582,76.582,0,0,1,206.9,37.755c-5.565-2.716-5.909-13.294.391-16.643a22.183,22.183,0,0,1,21.2-.327,11.168,11.168,0,0,1,5.649,11.385H231.5c0-.128-.24-.24-.24-.37-.327-8.424-7.408-11.058-15.01-10.318a19.194,19.194,0,0,0-6.517,1.976,6.509,6.509,0,0,0-3.778,6.517A6.509,6.509,0,0,0,210.3,36.1c3.318,1.218,6.841,2,10.275,2.953l8.3,2.17a9.8,9.8,0,0,1,6.734,8.842,10.448,10.448,0,0,1-5.626,10.862c-7.255,4.1-19.2,3.02-24.526-2.17a14.48,14.48,0,0,1-4.212-10.318ZM274.7,32.172h-2.89a6.569,6.569,0,0,0-.2-1.064,9.445,9.445,0,0,0-7.691-9.08,18.966,18.966,0,0,0-12.186.587,7.4,7.4,0,0,0-5.366,7.061,6.816,6.816,0,0,0,5.212,6.864l13.208,3.39a36.728,36.728,0,0,1,4.212,1.281,10.854,10.854,0,0,1,.562,20.225,24.174,24.174,0,0,1-19.551.2,13.555,13.555,0,0,1-8.169-13.164h2.823a15.836,15.836,0,0,0,24.113,10.081,7.76,7.76,0,0,0,4.171-7.255,6.714,6.714,0,0,0-4.585-6.67c-3.39-1.261-6.994-1.932-10.448-3.063a76.963,76.963,0,0,1-10.578-3.8c-5.432-2.673-5.866-13.164.327-16.511a21.876,21.876,0,0,1,21.55-.24,11.359,11.359,0,0,1,5.452,11.145ZM85.473,62.371a4.978,4.978,0,0,1-6.17-2.346L68.072,44.492l-1.629-2.17L53.409,60.048a4.774,4.774,0,0,1-5.866,2.3L64.335,39.823,48.712,19.468a5.194,5.194,0,0,1,6.19,2.17l11.64,15.724L78.252,21.7a4.671,4.671,0,0,1,5.823-2.172L78.012,27.57,69.8,38.258a2.17,2.17,0,0,0,0,3.237L85.44,62.371Zm71.3-43.12v3.063A15.75,15.75,0,0,0,140,38.585v23.9h-3.107V19.442h3.063v8.819c3.758-6.433,9.557-8.819,16.835-8.993ZM7.336,39.542,8.7,32.785c3.758-13.361,19.074-18.92,29.611-10.645,6.17,4.845,7.709,11.709,7.408,19.444H10.963C10.4,55.4,20.37,63.741,33.121,59.484a13.277,13.277,0,0,0,8.406-9.363c.674-2.17,1.787-2.542,3.824-1.914a17.639,17.639,0,0,1-8.429,12.883,20.421,20.421,0,0,1-23.788-3.04A21.408,21.408,0,0,1,7.79,45.49a8.613,8.613,0,0,0-.434-2.17q-.026-1.932-.026-3.778Zm3.671-.934H42.44c-.2-10.014-6.517-17.118-14.946-17.185-9.384-.128-16.1,6.821-16.511,17.141Z" transform="translate(4.67 -9.25)"/>
  </g>
</svg>
