<svg id="MongoDB-logo" xmlns="http://www.w3.org/2000/svg" width="340.655" height="90" viewBox="0 0 340.655 90">
  <path id="Path_4" data-name="Path 4" d="M46.55,40.441C41.743,19.562,31.723,14,29.167,10.075A44.434,44.434,0,0,1,26.372,4.69a5.443,5.443,0,0,1-1.984,4.43C21.173,11.942,7.517,22.9,6.367,46.621,5.3,68.739,22.884,82.378,25.207,83.787c1.787.866,3.963.019,5.024-.776,8.478-5.728,20.061-21,16.328-42.57" transform="translate(-6.321 -4.69)" fill="#10aa50"/>
  <path id="Path_5" data-name="Path 5" d="M68.384,222.46c-.443,5.561-.76,8.792-1.884,11.97,0,0,.738,5.294,1.256,10.9H69.59a101.965,101.965,0,0,1,2-11.74C69.216,232.423,68.475,227.34,68.384,222.46Z" transform="translate(-47.604 -155.332)" fill="#b8c4c2"/>
  <path id="Path_6" data-name="Path 6" d="M74.585,84h0c-2.4-1.091-3.093-6.2-3.2-10.958A220.762,220.762,0,0,0,71.9,49.443c-.126-4.129.06-38.239-1.033-43.233a41.263,41.263,0,0,0,2.578,4.91C76,15.051,86.027,20.608,90.831,41.479,94.574,63.006,83.053,78.232,74.585,84Z" transform="translate(-50.602 -5.733)" fill="#12924f"/>
  <path id="Path_7" data-name="Path 7" d="M1078.32,210.738a5.209,5.209,0,1,1,5.209-5.281,5.143,5.143,0,0,1-5.209,5.281m0-9.947a4.741,4.741,0,1,0,4.71,4.754,4.663,4.663,0,0,0-4.71-4.754m1.256,8.032-1.344-2.9h-1.083v2.9h-.788v-6.594h1.944c1.447,0,2.05.628,2.05,1.843a1.6,1.6,0,0,1-1.3,1.755l1.388,2.986Zm-2.4-3.58h1.14c.923,0,1.275-.314,1.275-1.156s-.336-1.127-1.375-1.127h-1.039Z" transform="translate(-742.876 -139.843)" fill="#fff"/>
  <path id="Path_8" data-name="Path 8" d="M810.756,137.809c1.41,1.127,4.227,1.592,6.71,1.592a13.061,13.061,0,0,0,9.458-3.382c3.14-2.854,5.3-7.222,5.3-14.2,0-6.7-2.55-12.139-7.781-15.323-2.952-1.856-6.776-2.587-11.138-2.587a9.246,9.246,0,0,0-3.284.4,1.724,1.724,0,0,0-.606.942c-.132,1.193-.132,10.28-.132,15.653,0,5.508,0,13.188.132,14.13a4.066,4.066,0,0,0,1.341,2.785M797.367,100.93c1.14,0,5.473.2,7.489.2,3.768,0,6.371-.2,13.414-.2,5.9,0,10.871,1.592,14.422,4.641,4.3,3.718,6.594,8.889,6.594,15.191,0,8.955-4.082,14.13-8.186,17.047-4.082,3.052-9.392,4.776-16.956,4.776-4.025,0-10.937-.132-16.7-.2h-.119c-.27-.531.493-2.6.964-2.653a8.532,8.532,0,0,0,2.707-.537c1.218-.5,1.5-1.121,1.639-3.31.2-4.113.135-9.021.135-14.595,0-3.978.066-11.74-.066-14.2-.2-2.054-1.071-2.584-2.826-2.983a36.5,36.5,0,0,0-3.768-.6c-.132-.4.9-2.2,1.234-2.587" transform="translate(-551.992 -71.473)" fill="#fff"/>
  <path id="Path_9" data-name="Path 9" d="M957.642,104.55c-.267.066-.6.732-.6,1.061-.069,2.39-.135,8.622-.135,12.934a.427.427,0,0,0,.336.333c.87.066,3.018.135,4.829.135a11.473,11.473,0,0,0,4.829-.732c2.148-1.061,3.14-3.385,3.14-5.9,0-5.771-4.025-7.96-9.995-7.96a18.008,18.008,0,0,0-2.415.132m15.229,26.533c0-5.837-4.3-9.153-12.145-9.153a30.661,30.661,0,0,0-3.419.066c-.2.066-.4.2-.4.333,0,4.179-.069,10.877.135,13.53a4.477,4.477,0,0,0,1.944,3.184c1.074.6,3.489.728,5.165.728,4.628,0,8.723-2.584,8.723-8.688M945.521,101.3c.606,0,2.389.2,6.952.2,4.292,0,7.781-.132,11.932-.132,5.165,0,12.274,1.859,12.274,9.552,0,3.768-2.682,6.833-6.17,8.293-.2.066-.2.2,0,.264,4.964,1.256,9.323,4.311,9.323,10.148,0,5.705-3.555,9.288-8.72,11.543a27.684,27.684,0,0,1-10.99,1.856c-3.018,0-11.106-.314-15.6-.264-.471-.2.43-2.324.832-2.653a12.365,12.365,0,0,0,3.043-.477c1.608-.4,1.8-.914,2-3.3.135-2.057.135-9.42.135-14.661,0-7.165.069-12,0-14.394-.066-1.856-.738-2.455-2.013-2.785-1-.2-2.681-.4-4.022-.6-.336-.333.7-2.324,1.03-2.587" transform="translate(-654.571 -71.731)" fill="#fff"/>
  <path id="Path_10" data-name="Path 10" d="M180.377,173.084a2.908,2.908,0,0,1-.2-1.341,1.705,1.705,0,0,1,.2-.895,22.785,22.785,0,0,0,2.575-.524c1.187-.3,1.633-.942,1.7-2.455.195-3.576.207-10.287.138-15v-.138a1.911,1.911,0,0,0-.628-1.686,13.483,13.483,0,0,0-3.558-1.57c-.562-.166-.873-.462-.857-.807s.371-.754,1.1-.9a42.317,42.317,0,0,0,9.037-2.336,1.325,1.325,0,0,1,.267.942c0,.207-.031.427-.053.653-.057.666-.119,1.422-.119,2.176a.5.5,0,0,0,.842.286c3.809-2.986,7.222-4.051,8.971-4.051,2.879,0,5.121,1.375,6.858,4.208a.462.462,0,0,0,.389.229.446.446,0,0,0,.364-.195c3.5-2.656,6.971-4.242,9.294-4.242,5.489,0,8.77,4.11,8.77,10.99,0,1.978-.019,4.487-.038,6.826-.016,2.054-.031,3.978-.031,5.31a1.835,1.835,0,0,0,1.083,1.4,13.879,13.879,0,0,0,3.429.845h.057a5.1,5.1,0,0,1-.345,2.245c-.364,0-.867-.031-1.495-.063-1.14-.057-2.7-.135-4.522-.135-3.649,0-5.555.069-7.376.188a5.522,5.522,0,0,1-.019-2.233,19.329,19.329,0,0,0,2.236-.487c1.162-.383,1.5-.911,1.57-2.452.028-1.1.239-10.751-.135-13.043a5.836,5.836,0,0,0-6.051-5.159,10.651,10.651,0,0,0-6.035,2.3.879.879,0,0,0-.22.568v.047a24.689,24.689,0,0,1,.264,4.864c0,1.256,0,2.565-.016,3.875-.016,2.663-.028,5.175.016,7.074a1.781,1.781,0,0,0,1.413,1.853c.342.075.612.141.885.2.524.129,1.071.261,1.884.389a3.608,3.608,0,0,1-.031,1.67,1.337,1.337,0,0,1-.235.568c-2.028-.069-4.11-.129-7.115-.129-.911,0-2.4.038-3.708.072-1.064.028-2.069.057-2.641.06a2.588,2.588,0,0,1-.2-1.156,2,2,0,0,1,.21-1.08l.807-.148c.7-.126,1.313-.232,1.884-.377.992-.314,1.366-.854,1.438-2.12.195-2.952.345-11.458-.072-13.587-.71-3.416-2.653-5.15-5.781-5.15a10.877,10.877,0,0,0-6.035,2.3,1.84,1.84,0,0,0-.556,1.366v3.514c0,4.27-.028,9.586.075,11.885a1.883,1.883,0,0,0,1.642,1.859c.292.085.794.166,1.378.264.336.057.7.116,1.083.185a4.76,4.76,0,0,1-.179,2.245c-.584,0-1.3-.038-2.126-.072-1.256-.057-2.826-.126-4.6-.126-2.1,0-3.558.069-4.729.126-.788.038-1.469.069-2.151.072" transform="translate(-126.166 -102.107)" fill="#fff"/>
  <path id="Path_11" data-name="Path 11" d="M368.671,148.33a5.721,5.721,0,0,0-3.2.9c-2.33,1.416-3.517,4.245-3.517,8.4,0,7.781,3.9,13.216,9.476,13.216a5.966,5.966,0,0,0,4.088-1.448c1.714-1.4,2.625-4.255,2.625-8.255,0-7.665-3.809-12.817-9.476-12.817m1.074,25.406c-10.079,0-13.668-7.395-13.668-14.312a12.8,12.8,0,0,1,5.872-11.232,17.932,17.932,0,0,1,9.071-2.682c7.69,0,13.062,5.529,13.062,13.452,0,5.382-2.145,9.633-6.2,12.29a17.6,17.6,0,0,1-8.133,2.484" transform="translate(-247.888 -102.17)" fill="#fff"/>
  <path id="Path_12" data-name="Path 12" d="M695.484,148.33a5.706,5.706,0,0,0-3.209.9c-2.33,1.416-3.517,4.245-3.517,8.4,0,7.781,3.9,13.216,9.476,13.216a5.966,5.966,0,0,0,4.1-1.448c1.714-1.4,2.622-4.255,2.622-8.255,0-7.665-3.806-12.817-9.473-12.817m1.074,25.406c-10.079,0-13.668-7.395-13.668-14.309a12.791,12.791,0,0,1,5.875-11.235,17.9,17.9,0,0,1,9.068-2.682c7.69,0,13.062,5.533,13.062,13.449,0,5.388-2.145,9.637-6.2,12.29a17.564,17.564,0,0,1-8.133,2.487" transform="translate(-473.618 -102.17)" fill="#fff"/>
  <path id="Path_13" data-name="Path 13" d="M589.655,148.011c-3.105,0-5.115,2.452-5.115,6.249s1.73,8.308,6.594,8.308a4.733,4.733,0,0,0,3.1-1.2,7.755,7.755,0,0,0,1.884-5.454c0-4.952-2.412-7.906-6.446-7.906m-.4,26.2a5.115,5.115,0,0,0-2.512.628c-2.459,1.57-3.6,3.14-3.6,4.964a5.3,5.3,0,0,0,2.088,4.274c1.727,1.463,4.057,2.176,7.118,2.176,6.026,0,8.726-3.24,8.726-6.45,0-2.236-1.121-3.733-3.429-4.581a26.9,26.9,0,0,0-8.384-1.008m.4,15.386c-3.617,0-6.224-.763-8.45-2.477a7.918,7.918,0,0,1-3.14-5.865,4.588,4.588,0,0,1,1.187-2.983,31.211,31.211,0,0,1,5.464-4.377.289.289,0,0,0,.176-.267.28.28,0,0,0-.214-.276c-2.779-1.064-3.617-2.826-3.872-3.768a.323.323,0,0,0-.028-.148.872.872,0,0,1,.352-1.083c.389-.276,1.011-.647,1.677-1.039a22.567,22.567,0,0,0,2.7-1.755.443.443,0,0,0-.113-.691c-4.113-1.382-6.186-4.437-6.186-9.106a9.052,9.052,0,0,1,3.8-7.451,17.332,17.332,0,0,1,8.5-2.883h.157a17.525,17.525,0,0,1,6.487,1.444,10.311,10.311,0,0,0,3.837.609,5.17,5.17,0,0,0,4.151-1.57,3.6,3.6,0,0,1,.22,1.187,4.466,4.466,0,0,1-.747,2.725,3.387,3.387,0,0,1-2.578,1.121,2.147,2.147,0,0,1-.314-.016,8.462,8.462,0,0,1-1.57-.261l-.258.091c-.082.119-.028.251.038.421a.53.53,0,0,1,.038.1,18.372,18.372,0,0,1,.374,2.543c0,4.883-1.925,7.008-4.007,8.585a13.677,13.677,0,0,1-6.908,2.675h0c-.053,0-.314.022-.8.066-.314.028-.722.066-.782.066h-.06c-.452.126-1.633.688-1.633,1.733,0,.867.534,1.944,3.087,2.138l1.652.116c3.366.235,7.571.527,9.549,1.2a6.613,6.613,0,0,1,4.418,6.365c0,4.38-3.115,8.5-8.33,11.018a18.105,18.105,0,0,1-7.878,1.768" transform="translate(-401.236 -102.489)" fill="#fff"/>
  <path id="Path_14" data-name="Path 14" d="M493.137,170.542a11.982,11.982,0,0,1-3.825-1,1.759,1.759,0,0,1-.471-.942c-.135-2.057-.135-8.026-.135-11.932,0-3.187-.534-5.966-1.884-7.96a8.074,8.074,0,0,0-6.842-3.583c-2.616,0-6.1,1.79-8.987,4.245-.069.066-.512.487-.5-.166s.11-1.978.173-2.826a1.454,1.454,0,0,0-.44-1.231,39.984,39.984,0,0,1-9.125,2.39c-1.426.276-1.787,1.648-.264,2.123h.022a13.018,13.018,0,0,1,3.454,1.52,1.812,1.812,0,0,1,.537,1.658c.066,4.443.066,11.276-.135,14.99-.066,1.46-.471,1.991-1.545,2.258l.1-.035a20.863,20.863,0,0,1-2.484.465,3.617,3.617,0,0,0,0,2.653c.672,0,4.082-.2,6.908-.2,3.887,0,5.9.2,6.908.2a3.7,3.7,0,0,0,.27-2.653,14.131,14.131,0,0,1-2.754-.4c-1.071-.264-1.341-.8-1.407-1.988-.132-3.121-.132-9.753-.132-14.265a2.656,2.656,0,0,1,.735-2.2,8.84,8.84,0,0,1,5.5-1.988,6,6,0,0,1,4.082,1.391,5.684,5.684,0,0,1,1.922,3.749c.267,2.512.2,7.564.2,11.932,0,2.39-.2,2.989-1.071,3.253a10.835,10.835,0,0,1-2.751.531,3.618,3.618,0,0,0,0,2.653c1.743,0,3.768-.2,6.707-.2,3.689,0,6.038.2,6.977.2a3.692,3.692,0,0,0,.27-2.653" transform="translate(-319.604 -101.905)" fill="#fff"/>
</svg>
