<svg xmlns="http://www.w3.org/2000/svg" width="282.501" height="94.04" viewBox="0 0 282.501 94.04">
  <g id="React-logo" transform="translate(2 2.02)" style="isolation: isolate">
    <g id="Group_2" data-name="Group 2" transform="translate(0 0)">
      <circle id="Ellipse_1" data-name="Ellipse 1" cx="9.489" cy="9.489" r="9.489" transform="translate(41.376 35.421)" fill="#fff" stroke="#fff" stroke-width="4"/>
      <g id="Group_1" data-name="Group 1" transform="translate(0 0)">
        <path id="Path_15" data-name="Path 15" d="M50.908,9.4c12.741,0,24.576,1.828,33.5,4.9,10.752,3.7,17.363,9.313,17.363,14.393,0,5.294-7.006,11.255-18.553,15.081-8.729,2.892-20.217,4.4-32.311,4.4-12.4,0-24.142-1.417-32.97-4.434C6.77,39.922.043,33.884.043,28.69c0-5.039,6.312-10.607,16.913-14.3C25.914,11.264,38.041,9.4,50.907,9.4Z" transform="translate(-0.043 16.221)" fill="none" stroke="#fff" stroke-width="4" fill-rule="evenodd"/>
        <path id="Path_16" data-name="Path 16" d="M21.1,35.333C27.465,24.3,34.961,14.957,42.081,8.761,50.659,1.3,58.822-1.628,63.223.91c4.587,2.645,6.25,11.692,3.8,23.606C65.165,33.523,60.732,44.228,54.691,54.7,48.5,65.446,41.4,74.91,34.38,81.049,25.493,88.817,16.9,91.628,12.4,89.033c-4.366-2.516-6.035-10.767-3.941-21.8,1.77-9.32,6.21-20.759,12.635-31.9Z" transform="translate(12.97 -0.014)" fill="none" stroke="#fff" stroke-width="4" fill-rule="evenodd"/>
        <path id="Path_17" data-name="Path 17" d="M21.1,54.668C14.716,43.643,10.37,32.482,8.556,23.22,6.372,12.06,7.916,3.527,12.313.982c4.582-2.653,13.251.424,22.347,8.5,6.877,6.106,13.938,15.291,20,25.758,6.213,10.731,10.869,21.6,12.68,30.753,2.292,11.579.437,20.426-4.058,23.028-4.361,2.525-12.342-.148-20.852-7.472C35.237,75.362,27.545,65.8,21.1,54.667Z" transform="translate(12.987 0.052)" fill="none" stroke="#fff" stroke-width="4" fill-rule="evenodd"/>
      </g>
    </g>
    <path id="Path_18" data-name="Path 18" d="M84.435,66.173,72.8,48.6c5.878-.519,11.175-4.778,11.175-12.559,0-7.918-5.619-12.985-13.5-12.985H53.168V66.14H58.53V49.021h8.592L78.1,66.14Zm-14.6-21.834h-11.3V27.867h11.3c5.106,0,8.592,3.358,8.592,8.2s-3.489,8.273-8.592,8.273ZM104.4,66.945a16.954,16.954,0,0,0,12.4-4.778L114.474,59a13.638,13.638,0,0,1-9.624,3.94c-6.716,0-10.853-4.909-11.241-10.785h25.255V50.927c0-9.365-5.556-16.731-14.989-16.731C94.96,34.2,88.5,41.5,88.5,50.539c0,9.755,6.654,16.382,15.89,16.382ZM114.089,48.6H93.612c.259-4.778,3.549-10.4,10.206-10.4C110.924,38.2,114.023,43.945,114.089,48.6ZM151.04,66.17V44.724c0-7.557-5.488-10.531-12.079-10.531A16.323,16.323,0,0,0,126.5,39.361l2.261,3.358a12.4,12.4,0,0,1,9.561-4.327c4.521,0,7.882,2.389,7.882,6.588V50.6c-2.52-2.908-6.072-4.265-10.337-4.265-5.3,0-10.921,3.3-10.921,10.271,0,6.782,5.619,10.337,10.921,10.337A13.5,13.5,0,0,0,146.2,62.615v3.549Zm-13.433-2.714c-4.521,0-7.688-2.84-7.688-6.782,0-4.005,3.167-6.848,7.688-6.848A10.449,10.449,0,0,1,146.2,53.7v5.878a10.453,10.453,0,0,1-8.592,3.877Zm36.859,3.489c5.684,0,9.043-2.326,11.434-5.425l-3.23-2.971a9.394,9.394,0,0,1-7.918,4.068c-6.654,0-10.785-5.168-10.785-12.079s4.134-12.013,10.785-12.013a9.177,9.177,0,0,1,7.918,4.068l3.23-2.971c-2.389-3.1-5.75-5.425-11.434-5.425-9.3,0-15.568,7.107-15.568,16.343,0,9.3,6.266,16.382,15.568,16.382Zm26.1,0a7.94,7.94,0,0,0,5.816-2l-1.42-3.618a4.631,4.631,0,0,1-3.3,1.291c-2.13,0-3.167-1.679-3.167-4.005V39.233h6.334V34.971H198.5V26.444h-4.846v8.527h-5.168v4.265h5.168V59.65c0,4.652,2.326,7.3,6.913,7.3Z" transform="translate(71.763 2.983)" fill="#fff" stroke="#fff" stroke-width="4" fill-rule="evenodd"/>
  </g>
</svg>
