<svg xmlns="http://www.w3.org/2000/svg" width="68.001" height="70" viewBox="0 0 68.001 75">
  <path id="Stack" d="M65.316,51.245l4.289,2.573a1.784,1.784,0,0,1,0,3.062L38.31,75.657a3.568,3.568,0,0,1-3.675,0L3.34,56.879a1.784,1.784,0,0,1,0-3.062l4.289-2.573L36.472,68.552,65.316,51.245Zm0-16.772,4.289,2.573a1.784,1.784,0,0,1,0,3.062L36.472,59.988,3.34,40.108a1.784,1.784,0,0,1,0-3.062l4.289-2.573L36.472,51.78ZM38.307,1.676l31.3,18.777a1.784,1.784,0,0,1,0,3.062L36.472,43.394,3.34,23.515a1.784,1.784,0,0,1,0-3.062l31.3-18.777a3.568,3.568,0,0,1,3.675,0ZM36.472,8.895,14.659,21.984,36.472,35.073,58.286,21.984Z" transform="translate(-2.472 -1.166)" fill="#e0474c"/>
</svg>
