<svg xmlns="http://www.w3.org/2000/svg" xmlns:xlink="http://www.w3.org/1999/xlink" width="1950" height="6664" viewBox="0 0 1950 6664">
  <defs>
    <filter id="Rectangle_5" x="6" y="1086" width="1938" height="3348" filterUnits="userSpaceOnUse">
      <feOffset dy="3" input="SourceAlpha"/>
      <feGaussianBlur stdDeviation="3" result="blur"/>
      <feFlood/>
      <feComposite operator="in" in2="blur"/>
      <feComposite in="SourceGraphic"/>
    </filter>
    <filter id="Hero-bg" x="0" y="0" width="1950" height="1151.427" filterUnits="userSpaceOnUse">
      <feOffset dy="3" input="SourceAlpha"/>
      <feGaussianBlur stdDeviation="5" result="blur-2"/>
      <feFlood flood-opacity="0.302"/>
      <feComposite operator="in" in2="blur-2"/>
      <feComposite in="SourceGraphic"/>
    </filter>
    <filter id="project-bg" x="15" y="3827" width="1920" height="2235" filterUnits="userSpaceOnUse">
      <feOffset dy="3" input="SourceAlpha"/>
      <feGaussianBlur stdDeviation="6" result="blur-3"/>
      <feFlood flood-opacity="0.251" result="color"/>
      <feComposite operator="out" in="SourceGraphic" in2="blur-3"/>
      <feComposite operator="in" in="color"/>
      <feComposite operator="in" in2="SourceGraphic"/>
    </filter>
    <filter id="Path_25" x="15" y="2287.036" width="1920" height="609.52" filterUnits="userSpaceOnUse">
      <feOffset input="SourceAlpha"/>
      <feGaussianBlur stdDeviation="5" result="blur-4"/>
      <feFlood flood-opacity="0.302" result="color-2"/>
      <feComposite operator="out" in="SourceGraphic" in2="blur-4"/>
      <feComposite operator="in" in="color-2"/>
      <feComposite operator="in" in2="SourceGraphic"/>
    </filter>
  </defs>
  <g id="Background" transform="translate(15 12)">
    <g transform="matrix(1, 0, 0, 1, -15, -12)" filter="url(#Rectangle_5)">
      <rect id="Rectangle_5-2" data-name="Rectangle 5" width="1920" height="3330" transform="translate(15 1092)" fill="#f3f3f3"/>
    </g>
    <g transform="matrix(1, 0, 0, 1, -15, -12)" filter="url(#Hero-bg)">
      <path id="Hero-bg-2" data-name="Hero-bg" d="M1315.753,1209.55c251.375,27.066,486.136,3.879,602.247-29.55V100H-2V1194.608c42.261,6.128,118.744,11.587,243.42,14.942C489.277,1216.221,821.858,1164.651,1315.753,1209.55Z" transform="translate(17 -88)" fill="#101010"/>
    </g>
    <path id="footer" d="M0,0H1920V813.688H0Z" transform="translate(0 5838.312)" fill="#f3f3f3"/>
    <g data-type="innerShadowGroup">
      <path id="project-bg-2" data-name="project-bg" d="M1928.244,2020.733s-592.256,233.1-960,235-960-235-960-235v2235s72.138-169.958,551.005-173.75c478.836-3.792,1368.995,173.75,1368.995,173.75Z" transform="translate(-8.244 1794.267)" fill="#e0474c"/>
      <g transform="matrix(1, 0, 0, 1, -15, -12)" filter="url(#project-bg)">
        <path id="project-bg-3" data-name="project-bg" d="M1928.244,2020.733s-592.256,233.1-960,235-960-235-960-235v2235s72.138-169.958,551.005-173.75c478.836-3.792,1368.995,173.75,1368.995,173.75Z" transform="translate(6.76 1806.27)" fill="#fff"/>
      </g>
    </g>
    <g id="Stack-Design" transform="translate(10)">
      <g id="Ellipse_2" data-name="Ellipse 2" transform="translate(810 2307)" fill="#fff" stroke="rgba(0,0,0,0.1)" stroke-width="5">
        <circle cx="150" cy="150" r="150" stroke="none"/>
        <circle cx="150" cy="150" r="147.5" fill="none"/>
      </g>
      <g data-type="innerShadowGroup">
        <path id="Path_25-2" data-name="Path 25" d="M1918.244,2106.213s-582.256,145.381-950,147.276-970-147.276-970-147.276v609.52s491.144-118.7,970-122.487c478.839-3.791,950,122.487,950,122.487Z" transform="translate(-8.244 168.823)" fill="#7acfd6"/>
        <g transform="matrix(1, 0, 0, 1, -25, -12)" filter="url(#Path_25)">
          <path id="Path_25-3" data-name="Path 25" d="M1918.244,2106.213s-582.256,145.381-950,147.276-970-147.276-970-147.276v609.52s491.144-118.7,970-122.487c478.839-3.791,950,122.487,950,122.487Z" transform="translate(16.76 180.82)" fill="#fff"/>
        </g>
      </g>
    </g>
  </g>
</svg>
