<svg xmlns="http://www.w3.org/2000/svg" width="41.012" height="40" viewBox="0 0 41.012 40">
  <path id="GitHub-Body" d="M20.506,0a20.507,20.507,0,0,0-6.485,39.961c1.025.179,1.41-.436,1.41-.974,0-.487-.026-2.1-.026-3.819-5.152.948-6.485-1.256-6.9-2.409a7.456,7.456,0,0,0-2.1-2.9c-.718-.384-1.743-1.333-.026-1.359,1.615-.026,2.768,1.487,3.153,2.1A4.383,4.383,0,0,0,15.508,32.3a4.313,4.313,0,0,1,1.307-2.743c-4.563-.513-9.33-2.281-9.33-10.125a7.98,7.98,0,0,1,2.1-5.511,7.369,7.369,0,0,1,.205-5.434s1.717-.538,5.639,2.1a19.333,19.333,0,0,1,10.253,0c3.922-2.666,5.639-2.1,5.639-2.1a7.369,7.369,0,0,1,.205,5.434,7.934,7.934,0,0,1,2.1,5.511c0,7.869-4.793,9.612-9.356,10.125a4.856,4.856,0,0,1,1.384,3.794c0,2.743-.026,4.947-.026,5.639,0,.538.384,1.179,1.41.974A20.517,20.517,0,0,0,20.506,0Z" fill="rgba(0,0,0,0.92)"/>
</svg>
